# xmcd
#
# Track frame offsets:
#	150
#	12984
#	26048
#	41426
#	56799
#	76455
#	104804
#	121215
#	142527
#	157986
#	177587
#	194120
#	212683
#	230173
#	243581
#	255507
#
# Disc length: 3520 seconds
#
# Revision: 3
# Processed by: cddbd v1.5.2PL0 Copyright (c) Steve Scherf et al.
# Submitted via: EZCDAudioConverter 2.1.7.1
#
DISCID=e30dbe10
DTITLE=Skip James - Very Best Of Skip James
DYEAR=2003
DGENRE=Blues
TTITLE0=22-20 Blues
TTITLE1=Little Cow Little Calf Is Gonna Die Blues
TTITLE2=Special Rider Blues
TTITLE3=Vicksburg Blues
TTITLE4=How Long Blues
TTITLE5=Devil Got My Woman
TTITLE6=Sick Bed Blues
TTITLE7=I Don't Want A Woman To Stay Up All Night Long
TTITLE8=Hard Time Killing Floor Blues
TTITLE9=Skip's Worried Blues
TTITLE10=Illinois Blues
TTITLE11=Cypress Grove Blues
TTITLE12=Cherry Ball Blues
TTITLE13=Crow Jane
TTITLE14=Everybody's Leaving Here
TTITLE15=I'm So Glad
EXTD=
EXTT0=
EXTT1=
EXTT2=
EXTT3=
EXTT4=
EXTT5=
EXTT6=
EXTT7=
EXTT8=
EXTT9=
EXTT10=
EXTT11=
EXTT12=
EXTT13=
EXTT14=
EXTT15=
PLAYORDER=
